<svg width="259" height="66" viewBox="0 0 259 66" fill="none" xmlns="http://www.w3.org/2000/svg">
<g clip-path="url(#clip0_1_70)">
<path d="M63.304 1.992C63.464 1.768 63.864 1.752 64.504 1.944C65.144 2.104 65.784 2.408 66.424 2.856C67.096 3.272 67.656 3.784 68.104 4.392C68.552 5 68.664 5.608 68.44 6.216C67.032 7.912 65.64 9.816 64.264 11.928C62.888 14.04 61.544 16.28 60.232 18.648C58.92 21.016 57.656 23.448 56.44 25.944C55.256 28.44 54.168 30.904 53.176 33.336C54.168 33.88 55.16 34.408 56.152 34.92C57.144 35.432 58.152 35.912 59.176 36.36H59.08C59.304 36.424 59.352 36.552 59.224 36.744C59.128 36.904 58.952 37.096 58.696 37.32C58.44 37.512 58.136 37.704 57.784 37.896C57.464 38.088 57.192 38.2 56.968 38.232L53.32 36.504L52.12 35.928C50.904 39.064 49.896 41.976 49.096 44.664C48.328 47.352 47.832 49.64 47.608 51.528C47.576 51.784 47.352 51.768 46.936 51.48C46.552 51.224 46.12 50.856 45.64 50.376C45.192 49.928 44.776 49.432 44.392 48.888C44.008 48.376 43.816 47.992 43.816 47.736C43.912 46.008 44.296 43.944 44.968 41.544C45.64 39.144 46.488 36.536 47.512 33.72C46.2 33.144 44.936 32.616 43.72 32.136C42.504 31.624 41.288 31.16 40.072 30.744C38.024 33.368 35.832 35.88 33.496 38.28C31.192 40.68 28.824 42.808 26.392 44.664C23.992 46.488 21.592 47.944 19.192 49.032C16.792 50.12 14.52 50.664 12.376 50.664C8.344 50.664 5.32 49.976 3.304 48.6C1.32 47.224 0.328 44.952 0.328 41.784C0.328 39.32 1 37.064 2.344 35.016C3.688 32.936 5.464 31.144 7.672 29.64C9.88 28.104 12.36 26.888 15.112 25.992C17.896 25.096 20.712 24.568 23.56 24.408C24.04 24.376 24.52 24.36 25 24.36C25.512 24.328 25.992 24.312 26.44 24.312C28.552 24.312 30.504 24.456 32.296 24.744C34.12 25 35.848 25.352 37.48 25.8C38.824 23.848 40.056 21.928 41.176 20.04C42.328 18.152 43.32 16.376 44.152 14.712C45.016 13.016 45.704 11.48 46.216 10.104C46.728 8.728 47.032 7.592 47.128 6.696C47.096 5.256 46.728 4.152 46.024 3.384C45.32 2.584 44.344 2.2 43.096 2.232C40.92 2.232 38.872 2.744 36.952 3.768C35.032 4.792 33.304 6.136 31.768 7.8C30.232 9.432 28.888 11.288 27.736 13.368C26.616 15.448 25.752 17.544 25.144 19.656H25.096C25 19.944 24.664 20.248 24.088 20.568C23.512 20.888 22.888 21.16 22.216 21.384C21.576 21.608 20.984 21.768 20.44 21.864C19.928 21.928 19.672 21.832 19.672 21.576L19.816 20.808C19.912 20.328 19.992 19.928 20.056 19.608C20.152 19.288 20.248 18.968 20.344 18.648C20.472 18.296 20.632 17.928 20.824 17.544C21.016 17.128 21.256 16.616 21.544 16.008C22.472 14.088 23.688 12.2 25.192 10.344C26.696 8.456 28.392 6.76 30.28 5.256C32.168 3.752 34.184 2.536 36.328 1.608C38.472 0.647999 40.664 0.135999 42.904 0.0719976C44.152 0.0399981 45.32 0.215998 46.408 0.599997C47.496 0.983997 48.44 1.512 49.24 2.184C50.04 2.856 50.664 3.656 51.112 4.584C51.592 5.512 51.832 6.52 51.832 7.608C51.736 8.856 51.432 10.248 50.92 11.784C50.408 13.32 49.736 14.952 48.904 16.68C48.104 18.408 47.144 20.2 46.024 22.056C44.904 23.912 43.688 25.768 42.376 27.624C44.456 28.552 46.536 29.608 48.616 30.792C49.672 28.136 50.824 25.432 52.072 22.68C53.352 19.928 54.632 17.288 55.912 14.76C57.224 12.2 58.504 9.832 59.752 7.656C61.032 5.448 62.216 3.56 63.304 1.992ZM9.832 47.4C11.944 47.4 14.088 46.888 16.264 45.864C18.472 44.872 20.648 43.56 22.792 41.928C24.936 40.264 27.016 38.344 29.032 36.168C31.08 33.992 33.016 31.72 34.84 29.352C33.528 29.096 32.184 28.904 30.808 28.776C29.432 28.648 27.96 28.584 26.392 28.584C25.848 28.584 25.32 28.6 24.808 28.632C24.296 28.632 23.768 28.648 23.224 28.68C20.856 28.872 18.472 29.384 16.072 30.216C13.704 31.048 11.56 32.072 9.64 33.288C7.72 34.504 6.168 35.848 4.984 37.32C3.8 38.792 3.208 40.264 3.208 41.736C3.336 42.728 3.624 43.592 4.072 44.328C4.52 45.032 5.048 45.608 5.656 46.056C6.296 46.536 6.984 46.872 7.72 47.064C8.456 47.288 9.16 47.4 9.832 47.4ZM81.2931 27.384C81.2931 27.608 81.1491 27.784 80.8611 27.912C80.6051 28.04 80.3171 28.12 79.9971 28.152C79.6771 28.152 79.3891 28.088 79.1331 27.96C78.8771 27.832 78.7491 27.64 78.7491 27.384C78.7491 27.256 78.7331 27.144 78.7011 27.048C78.6691 26.92 78.6531 26.792 78.6531 26.664C78.6211 26.312 78.5731 25.928 78.5091 25.512C78.4451 25.064 78.3331 24.664 78.1731 24.312C78.0131 23.928 77.7731 23.608 77.4531 23.352C77.1651 23.096 76.7811 22.952 76.3011 22.92C75.4691 22.888 74.6531 23.08 73.8531 23.496C73.0851 23.88 72.3331 24.408 71.5971 25.08C70.8611 25.752 70.1731 26.52 69.5331 27.384C68.8931 28.248 68.3011 29.16 67.7571 30.12C67.2451 31.048 66.7971 31.992 66.4131 32.952C66.0291 33.88 65.7251 34.744 65.5011 35.544C65.4051 35.928 65.3091 36.376 65.2131 36.888C65.1171 37.4 65.0691 37.912 65.0691 38.424C65.0691 38.872 65.1011 39.304 65.1651 39.72C65.2611 40.104 65.4211 40.44 65.6451 40.728C65.8691 41.016 66.1571 41.224 66.5091 41.352C66.8611 41.448 67.3251 41.432 67.9011 41.304C68.3491 41.208 68.9091 40.872 69.5811 40.296C70.2531 39.688 70.9411 38.984 71.6451 38.184C72.3491 37.384 73.0211 36.552 73.6611 35.688C74.3331 34.824 74.8771 34.056 75.2931 33.384C75.6451 32.456 75.9491 31.544 76.2051 30.648C76.4611 29.752 76.6211 28.936 76.6851 28.2H77.0211C77.4051 28.008 77.9011 28.024 78.5091 28.248C79.1491 28.44 79.7411 28.744 80.2851 29.16C80.8611 29.576 81.3251 30.072 81.6771 30.648C82.0291 31.192 82.1251 31.736 81.9651 32.28C81.9011 32.472 81.8051 32.696 81.6771 32.952C81.5811 33.176 81.4851 33.416 81.3891 33.672C81.1331 34.248 80.8771 34.856 80.6211 35.496C80.3651 36.136 80.1251 36.776 79.9011 37.416C79.7091 38.056 79.5331 38.68 79.3731 39.288C79.2451 39.864 79.1811 40.376 79.1811 40.824C79.1811 41.496 79.2291 41.88 79.3251 41.976H79.7571C80.6211 41.688 81.4531 41.192 82.2531 40.488C83.0531 39.784 83.8211 38.984 84.5571 38.088C85.2931 37.16 85.9811 36.184 86.6211 35.16C87.2931 34.136 87.9171 33.16 88.4931 32.232C88.6531 32.008 88.7811 31.8 88.8771 31.608C89.0051 31.384 89.1331 31.16 89.2611 30.936C89.3571 30.776 89.5491 30.696 89.8371 30.696C90.1251 30.664 90.3971 30.696 90.6531 30.792C90.9411 30.888 91.1651 31.016 91.3251 31.176C91.4851 31.336 91.5011 31.528 91.3731 31.752C91.1811 32.04 90.9891 32.344 90.7971 32.664C90.6371 32.952 90.4611 33.256 90.2691 33.576C89.2771 35.208 88.1891 36.856 87.0051 38.52C85.8211 40.152 84.4451 41.64 82.8771 42.984C82.6531 43.176 82.3651 43.4 82.0131 43.656C81.6611 43.912 81.2611 44.152 80.8131 44.376C80.3651 44.6 79.8531 44.792 79.2771 44.952C78.7331 45.08 78.1251 45.128 77.4531 45.096C75.8851 44.968 74.7491 44.488 74.0451 43.656C73.3411 42.824 72.9891 41.832 72.9891 40.68V40.008C72.3811 40.648 71.7411 41.256 71.0691 41.832C70.4291 42.408 69.7571 42.92 69.0531 43.368C68.3811 43.816 67.6931 44.184 66.9891 44.472C66.2851 44.728 65.5811 44.856 64.8771 44.856C63.7251 44.76 62.7491 44.488 61.9491 44.04C61.1811 43.592 60.5731 43.08 60.1251 42.504C59.6771 41.896 59.3571 41.256 59.1651 40.584C58.9731 39.88 58.8771 39.208 58.8771 38.568C58.8771 38.312 58.8931 38.056 58.9251 37.8C58.9251 37.544 58.9411 37.32 58.9731 37.128C59.1011 36.104 59.4051 34.984 59.8851 33.768C60.3971 32.552 61.0211 31.336 61.7571 30.12C62.5251 28.904 63.4051 27.736 64.3971 26.616C65.4211 25.464 66.5251 24.456 67.7091 23.592C68.8931 22.696 70.1251 21.992 71.4051 21.48C72.7171 20.936 74.0611 20.664 75.4371 20.664C76.3011 20.664 77.1171 20.76 77.8851 20.952C78.5891 21.144 79.1651 21.464 79.6131 21.912C80.0931 22.36 80.4611 22.888 80.7171 23.496C80.9731 24.072 81.1331 24.696 81.1971 25.368C81.2931 26.04 81.3251 26.712 81.2931 27.384ZM106.936 36.792C106.264 37.752 105.48 38.728 104.584 39.72C103.72 40.712 102.776 41.608 101.752 42.408C100.728 43.208 99.6236 43.864 98.4396 44.376C97.2556 44.856 96.0236 45.064 94.7436 45C93.3356 44.936 92.2956 44.488 91.6236 43.656C90.9516 42.824 90.6316 41.864 90.6636 40.776C90.6956 39.976 90.8556 39.192 91.1436 38.424C91.4316 37.656 91.7676 36.904 92.1516 36.168C92.5676 35.4 93.0316 34.664 93.5436 33.96C94.0556 33.224 94.5676 32.504 95.0796 31.8C95.2076 31.64 95.3516 31.432 95.5116 31.176C95.6716 30.92 95.8316 30.712 95.9916 30.552L97.0956 29.064C97.6716 28.264 98.1996 27.576 98.6796 27C99.1596 26.392 99.4796 26.04 99.6396 25.944C99.2556 26.008 98.9036 26.072 98.5836 26.136C98.2956 26.2 98.0076 26.28 97.7196 26.376C97.3676 26.472 96.9996 26.552 96.6156 26.616C96.2636 26.68 95.7836 26.696 95.1756 26.664H94.5996C93.8956 27.624 93.2076 28.632 92.5356 29.688C91.8636 30.712 91.2396 31.704 90.6636 32.664C90.5356 32.824 90.3276 32.904 90.0396 32.904C89.7836 32.904 89.5276 32.872 89.2716 32.808C89.0156 32.712 88.8076 32.584 88.6476 32.424C88.5196 32.264 88.5356 32.072 88.6956 31.848C88.9516 31.432 89.2236 30.984 89.5116 30.504C89.7996 30.024 90.0716 29.576 90.3276 29.16C90.6156 28.68 90.9196 28.184 91.2396 27.672C91.5916 27.128 91.9436 26.584 92.2956 26.04C91.8156 25.688 91.5756 25.208 91.5756 24.6C91.5756 24.248 91.6556 23.848 91.8156 23.4C91.9756 22.92 92.1676 22.44 92.3916 21.96C92.6476 21.48 92.9196 21 93.2076 20.52C93.4956 20.008 93.7836 19.528 94.0716 19.08C94.3276 18.696 94.5516 18.296 94.7436 17.88C94.9676 17.464 95.1596 17.032 95.3196 16.584C96.1836 16.936 96.9996 17.384 97.7676 17.928C98.5676 18.44 98.9676 19.08 98.9676 19.848C98.9676 20.2 98.8556 20.648 98.6316 21.192L96.4716 24.312C96.3436 24.504 96.4236 24.568 96.7116 24.504C97.0316 24.44 97.4796 24.312 98.0556 24.12C98.6316 23.896 99.2716 23.64 99.9756 23.352C100.712 23.032 101.4 22.712 102.04 22.392C102.712 22.072 103.304 21.768 103.816 21.48C104.36 21.16 104.712 20.904 104.872 20.712C105.064 20.712 105.304 20.776 105.592 20.904C105.88 21.032 106.168 21.176 106.456 21.336C106.744 21.496 107 21.656 107.224 21.816C107.448 21.976 107.576 22.072 107.608 22.104C107.864 22.456 107.912 22.92 107.752 23.496C107.592 24.072 107.288 24.728 106.84 25.464C106.392 26.168 105.832 26.952 105.16 27.816C104.52 28.648 103.848 29.512 103.144 30.408C102.728 30.952 102.312 31.496 101.896 32.04C101.48 32.552 101.064 33.08 100.648 33.624C100.328 34.008 99.9756 34.472 99.5916 35.016C99.2076 35.56 98.8396 36.136 98.4876 36.744C98.1356 37.32 97.8316 37.896 97.5756 38.472C97.3516 39.048 97.2396 39.576 97.2396 40.056C97.2396 40.856 97.5436 41.272 98.1516 41.304C98.5036 41.304 98.9516 41.176 99.4956 40.92C100.04 40.632 100.616 40.248 101.224 39.768C101.832 39.256 102.456 38.68 103.096 38.04C103.736 37.368 104.328 36.648 104.872 35.88C105.448 35.016 106.008 34.136 106.552 33.24C107.128 32.312 107.592 31.544 107.944 30.936C108.072 30.776 108.264 30.696 108.52 30.696C108.808 30.664 109.08 30.696 109.336 30.792C109.592 30.888 109.8 31.016 109.96 31.176C110.12 31.336 110.136 31.528 110.008 31.752C109.784 32.104 109.56 32.472 109.336 32.856C109.144 33.208 108.936 33.56 108.712 33.912C108.424 34.424 108.136 34.92 107.848 35.4C107.56 35.88 107.256 36.344 106.936 36.792ZM132.359 23.304C131.303 25.288 130.279 27.272 129.287 29.256C128.295 31.24 127.431 33.192 126.695 35.112H126.743C126.359 36.04 126.023 37 125.735 37.992C125.447 38.952 125.303 39.8 125.303 40.536C125.303 41.368 125.399 41.848 125.591 41.976H126.023C126.887 41.688 127.719 41.192 128.519 40.488C129.319 39.784 130.087 38.984 130.823 38.088C131.559 37.16 132.247 36.184 132.887 35.16C133.559 34.136 134.183 33.16 134.759 32.232C134.919 32.008 135.047 31.8 135.143 31.608C135.271 31.384 135.399 31.16 135.527 30.936C135.623 30.776 135.815 30.696 136.103 30.696C136.391 30.664 136.663 30.696 136.919 30.792C137.207 30.888 137.431 31.016 137.591 31.176C137.751 31.336 137.767 31.528 137.639 31.752C137.447 32.04 137.255 32.344 137.063 32.664C136.903 32.952 136.727 33.256 136.535 33.576C135.543 35.208 134.455 36.856 133.271 38.52C132.087 40.152 130.711 41.64 129.143 42.984C128.919 43.176 128.631 43.4 128.279 43.656C127.927 43.912 127.527 44.152 127.079 44.376C126.631 44.6 126.119 44.792 125.543 44.952C124.999 45.08 124.391 45.128 123.719 45.096C122.151 44.968 121.015 44.488 120.311 43.656C119.607 42.824 119.255 41.832 119.255 40.68V40.008C118.647 40.648 118.007 41.256 117.335 41.832C116.695 42.408 116.023 42.92 115.319 43.368C114.647 43.816 113.959 44.184 113.255 44.472C112.551 44.728 111.847 44.856 111.143 44.856C109.991 44.76 109.015 44.488 108.215 44.04C107.447 43.592 106.839 43.08 106.391 42.504C105.943 41.896 105.623 41.256 105.431 40.584C105.239 39.88 105.143 39.208 105.143 38.568C105.143 38.312 105.159 38.056 105.191 37.8C105.191 37.544 105.207 37.32 105.239 37.128C105.367 36.104 105.671 34.984 106.151 33.768C106.663 32.552 107.287 31.336 108.023 30.12C108.791 28.904 109.671 27.736 110.663 26.616C111.687 25.464 112.791 24.456 113.975 23.592C115.159 22.696 116.391 21.992 117.671 21.48C118.983 20.936 120.327 20.664 121.703 20.664C122.567 20.664 123.383 20.76 124.151 20.952C125.143 21.24 125.911 21.784 126.455 22.584L127.127 21.336L128.471 18.792C129.047 17.736 129.591 16.648 130.103 15.528C130.647 14.408 131.143 13.304 131.591 12.216C132.039 11.128 132.423 10.104 132.743 9.144C133.095 8.152 133.383 7.24 133.607 6.408C133.991 6.216 134.503 6.2 135.143 6.36C135.815 6.52 136.455 6.792 137.063 7.176C137.671 7.56 138.167 8.024 138.551 8.568C138.935 9.112 139.031 9.656 138.839 10.2C138.711 10.552 138.455 11.128 138.071 11.928C137.719 12.728 137.287 13.64 136.775 14.664C136.295 15.656 135.767 16.712 135.191 17.832C134.615 18.952 134.071 19.992 133.559 20.952L132.311 23.304H132.359ZM114.167 41.304C114.615 41.208 115.175 40.872 115.847 40.296C116.519 39.72 117.191 39.032 117.863 38.232C118.567 37.432 119.239 36.6 119.879 35.736C120.551 34.872 121.095 34.104 121.511 33.432L122.135 31.704C122.519 30.712 122.935 29.736 123.383 28.776C123.831 27.784 124.311 26.792 124.823 25.8C124.727 25.16 124.519 24.536 124.199 23.928C123.911 23.32 123.367 22.984 122.567 22.92C121.735 22.888 120.919 23.08 120.119 23.496C119.351 23.88 118.599 24.408 117.863 25.08C117.127 25.752 116.439 26.52 115.799 27.384C115.159 28.248 114.567 29.16 114.023 30.12C113.511 31.048 113.063 31.992 112.679 32.952C112.295 33.88 111.991 34.744 111.767 35.544C111.671 35.928 111.575 36.376 111.479 36.888C111.383 37.4 111.335 37.912 111.335 38.424C111.335 38.872 111.367 39.304 111.431 39.72C111.527 40.104 111.687 40.44 111.911 40.728C112.135 41.016 112.423 41.224 112.775 41.352C113.127 41.448 113.591 41.432 114.167 41.304ZM159.105 5.976C159.265 5.752 159.649 5.736 160.257 5.928C160.897 6.088 161.537 6.392 162.177 6.84C162.817 7.256 163.361 7.768 163.809 8.376C164.257 8.984 164.369 9.592 164.145 10.2C162.769 11.896 161.409 13.72 160.065 15.672C158.721 17.624 157.425 19.672 156.177 21.816C154.961 23.928 153.793 26.088 152.673 28.296C151.585 30.504 150.577 32.68 149.649 34.824C150.033 34.888 150.417 34.936 150.801 34.968C151.217 35 151.649 35.016 152.097 35.016C153.761 35.016 155.521 34.744 157.377 34.2C159.233 33.656 161.057 32.904 162.849 31.944C164.673 30.952 166.401 29.768 168.033 28.392C169.697 27.016 171.153 25.512 172.401 23.88C173.681 22.248 174.705 20.504 175.473 18.648C176.273 16.76 176.721 14.824 176.817 12.84C176.785 11.944 176.609 10.952 176.289 9.864C176.001 8.776 175.425 7.768 174.561 6.84C173.729 5.912 172.545 5.144 171.009 4.536C169.473 3.896 167.473 3.56 165.009 3.528C162.865 3.656 160.689 4.312 158.481 5.496C156.305 6.68 154.193 8.184 152.145 10.008C150.097 11.832 148.177 13.864 146.385 16.104C144.593 18.312 143.041 20.52 141.729 22.728C140.449 24.936 139.441 27.032 138.705 29.016C138.001 30.968 137.697 32.584 137.793 33.864C137.825 34.408 137.585 34.648 137.073 34.584C136.561 34.52 135.985 34.264 135.345 33.816C134.705 33.336 134.113 32.712 133.569 31.944C133.057 31.144 132.801 30.296 132.801 29.4C132.801 29.24 132.817 29.048 132.849 28.824C132.881 28.568 132.945 28.312 133.041 28.056H132.993C133.889 24.824 135.329 21.672 137.313 18.6C139.297 15.496 141.681 12.728 144.465 10.296C147.249 7.832 150.369 5.832 153.825 4.296C157.313 2.728 160.977 1.848 164.817 1.656H164.769C165.441 1.56 166.097 1.496 166.737 1.464C167.377 1.432 168.017 1.416 168.657 1.416C171.249 1.416 173.441 1.752 175.233 2.424C177.025 3.096 178.481 3.976 179.601 5.064C180.721 6.12 181.521 7.336 182.001 8.712C182.513 10.088 182.769 11.496 182.769 12.936C182.769 15.4 182.273 17.72 181.281 19.896C180.289 22.04 178.977 24.024 177.345 25.848C175.713 27.64 173.825 29.24 171.681 30.648C169.569 32.024 167.393 33.192 165.153 34.152C162.913 35.08 160.673 35.784 158.433 36.264C156.225 36.712 154.193 36.904 152.337 36.84C151.153 36.808 150.033 36.664 148.977 36.408C147.825 39.256 146.849 41.96 146.049 44.52C145.281 47.048 144.769 49.304 144.513 51.288C144.513 50.968 144.337 50.536 143.985 49.992C143.633 49.48 143.233 49 142.785 48.552C142.337 48.104 141.905 47.752 141.489 47.496C141.105 47.24 140.865 47.224 140.769 47.448C140.865 45.72 141.217 43.72 141.825 41.448C142.465 39.176 143.281 36.76 144.273 34.2C142.545 32.824 141.537 31.192 141.249 29.304C141.281 29.048 141.489 28.76 141.873 28.44C142.257 28.12 142.801 27.8 143.505 27.48C143.985 29.272 144.577 30.68 145.281 31.704C146.241 29.368 147.297 27.016 148.449 24.648C149.633 22.248 150.833 19.928 152.049 17.688C153.265 15.448 154.465 13.336 155.649 11.352C156.865 9.336 158.017 7.544 159.105 5.976ZM197.028 27.384C197.028 27.608 196.884 27.784 196.596 27.912C196.34 28.04 196.052 28.12 195.732 28.152C195.412 28.152 195.124 28.088 194.868 27.96C194.612 27.832 194.484 27.64 194.484 27.384C194.484 27.256 194.468 27.144 194.436 27.048C194.404 26.92 194.388 26.792 194.388 26.664C194.356 26.312 194.308 25.928 194.244 25.512C194.18 25.064 194.068 24.664 193.908 24.312C193.748 23.928 193.508 23.608 193.188 23.352C192.9 23.096 192.516 22.952 192.036 22.92C191.204 22.888 190.388 23.08 189.588 23.496C188.82 23.88 188.068 24.408 187.332 25.08C186.596 25.752 185.908 26.52 185.268 27.384C184.628 28.248 184.036 29.16 183.492 30.12C182.98 31.048 182.532 31.992 182.148 32.952C181.764 33.88 181.46 34.744 181.236 35.544C181.14 35.928 181.044 36.376 180.948 36.888C180.852 37.4 180.804 37.912 180.804 38.424C180.804 38.872 180.836 39.304 180.9 39.72C180.996 40.104 181.156 40.44 181.38 40.728C181.604 41.016 181.892 41.224 182.243 41.352C182.596 41.448 183.06 41.432 183.636 41.304C184.084 41.208 184.644 40.872 185.316 40.296C185.988 39.688 186.676 38.984 187.38 38.184C188.084 37.384 188.756 36.552 189.396 35.688C190.068 34.824 190.612 34.056 191.028 33.384C191.38 32.456 191.684 31.544 191.94 30.648C192.196 29.752 192.356 28.936 192.42 28.2H192.756C193.14 28.008 193.636 28.024 194.244 28.248C194.884 28.44 195.476 28.744 196.02 29.16C196.596 29.576 197.06 30.072 197.412 30.648C197.764 31.192 197.86 31.736 197.7 32.28C197.636 32.472 197.54 32.696 197.412 32.952C197.316 33.176 197.22 33.416 197.124 33.672C196.868 34.248 196.612 34.856 196.356 35.496C196.1 36.136 195.86 36.776 195.636 37.416C195.444 38.056 195.268 38.68 195.108 39.288C194.98 39.864 194.916 40.376 194.916 40.824C194.916 41.496 194.964 41.88 195.06 41.976H195.492C196.356 41.688 197.188 41.192 197.988 40.488C198.788 39.784 199.556 38.984 200.292 38.088C201.028 37.16 201.716 36.184 202.356 35.16C203.028 34.136 203.652 33.16 204.228 32.232C204.388 32.008 204.516 31.8 204.612 31.608C204.74 31.384 204.868 31.16 204.996 30.936C205.092 30.776 205.284 30.696 205.572 30.696C205.86 30.664 206.132 30.696 206.388 30.792C206.676 30.888 206.9 31.016 207.06 31.176C207.22 31.336 207.236 31.528 207.108 31.752C206.916 32.04 206.724 32.344 206.532 32.664C206.372 32.952 206.196 33.256 206.004 33.576C205.012 35.208 203.924 36.856 202.74 38.52C201.556 40.152 200.18 41.64 198.612 42.984C198.388 43.176 198.1 43.4 197.748 43.656C197.396 43.912 196.996 44.152 196.548 44.376C196.1 44.6 195.588 44.792 195.012 44.952C194.468 45.08 193.86 45.128 193.188 45.096C191.62 44.968 190.484 44.488 189.78 43.656C189.076 42.824 188.724 41.832 188.724 40.68V40.008C188.116 40.648 187.476 41.256 186.804 41.832C186.164 42.408 185.492 42.92 184.788 43.368C184.116 43.816 183.428 44.184 182.724 44.472C182.02 44.728 181.316 44.856 180.612 44.856C179.46 44.76 178.484 44.488 177.684 44.04C176.916 43.592 176.308 43.08 175.86 42.504C175.412 41.896 175.091 41.256 174.899 40.584C174.707 39.88 174.611 39.208 174.611 38.568C174.611 38.312 174.627 38.056 174.659 37.8C174.659 37.544 174.675 37.32 174.707 37.128C174.835 36.104 175.14 34.984 175.62 33.768C176.132 32.552 176.756 31.336 177.492 30.12C178.26 28.904 179.14 27.736 180.132 26.616C181.156 25.464 182.26 24.456 183.444 23.592C184.628 22.696 185.86 21.992 187.14 21.48C188.452 20.936 189.796 20.664 191.172 20.664C192.036 20.664 192.852 20.76 193.62 20.952C194.324 21.144 194.9 21.464 195.348 21.912C195.828 22.36 196.196 22.888 196.452 23.496C196.708 24.072 196.868 24.696 196.932 25.368C197.028 26.04 197.06 26.712 197.028 27.384ZM222.67 36.792C221.998 37.752 221.214 38.728 220.318 39.72C219.454 40.712 218.51 41.608 217.486 42.408C216.462 43.208 215.358 43.864 214.174 44.376C212.99 44.856 211.758 45.064 210.478 45C209.07 44.936 208.03 44.488 207.358 43.656C206.686 42.824 206.366 41.864 206.398 40.776C206.43 39.976 206.59 39.192 206.878 38.424C207.166 37.656 207.502 36.904 207.886 36.168C208.302 35.4 208.766 34.664 209.278 33.96C209.79 33.224 210.302 32.504 210.814 31.8C210.942 31.64 211.086 31.432 211.246 31.176C211.406 30.92 211.566 30.712 211.726 30.552L212.83 29.064C213.406 28.264 213.934 27.576 214.414 27C214.894 26.392 215.214 26.04 215.374 25.944C214.99 26.008 214.638 26.072 214.318 26.136C214.03 26.2 213.742 26.28 213.454 26.376C213.102 26.472 212.734 26.552 212.35 26.616C211.998 26.68 211.518 26.696 210.91 26.664H210.334C209.63 27.624 208.942 28.632 208.27 29.688C207.598 30.712 206.974 31.704 206.398 32.664C206.27 32.824 206.062 32.904 205.774 32.904C205.518 32.904 205.262 32.872 205.006 32.808C204.75 32.712 204.542 32.584 204.382 32.424C204.254 32.264 204.27 32.072 204.43 31.848C204.686 31.432 204.958 30.984 205.246 30.504C205.534 30.024 205.806 29.576 206.062 29.16C206.35 28.68 206.654 28.184 206.974 27.672C207.326 27.128 207.678 26.584 208.03 26.04C207.55 25.688 207.31 25.208 207.31 24.6C207.31 24.248 207.39 23.848 207.55 23.4C207.71 22.92 207.902 22.44 208.126 21.96C208.382 21.48 208.654 21 208.942 20.52C209.23 20.008 209.518 19.528 209.806 19.08C210.062 18.696 210.286 18.296 210.478 17.88C210.702 17.464 210.894 17.032 211.054 16.584C211.918 16.936 212.734 17.384 213.502 17.928C214.302 18.44 214.702 19.08 214.702 19.848C214.702 20.2 214.59 20.648 214.366 21.192L212.206 24.312C212.078 24.504 212.158 24.568 212.446 24.504C212.766 24.44 213.214 24.312 213.79 24.12C214.366 23.896 215.006 23.64 215.71 23.352C216.446 23.032 217.134 22.712 217.774 22.392C218.446 22.072 219.038 21.768 219.55 21.48C220.094 21.16 220.446 20.904 220.606 20.712C220.798 20.712 221.038 20.776 221.326 20.904C221.614 21.032 221.902 21.176 222.19 21.336C222.478 21.496 222.734 21.656 222.958 21.816C223.182 21.976 223.31 22.072 223.342 22.104C223.598 22.456 223.646 22.92 223.486 23.496C223.326 24.072 223.022 24.728 222.574 25.464C222.126 26.168 221.566 26.952 220.894 27.816C220.254 28.648 219.582 29.512 218.878 30.408C218.462 30.952 218.046 31.496 217.63 32.04C217.214 32.552 216.798 33.08 216.382 33.624C216.062 34.008 215.71 34.472 215.326 35.016C214.942 35.56 214.574 36.136 214.222 36.744C213.87 37.32 213.566 37.896 213.31 38.472C213.086 39.048 212.974 39.576 212.974 40.056C212.974 40.856 213.278 41.272 213.886 41.304C214.238 41.304 214.686 41.176 215.23 40.92C215.774 40.632 216.35 40.248 216.958 39.768C217.566 39.256 218.19 38.68 218.83 38.04C219.47 37.368 220.062 36.648 220.606 35.88C221.182 35.016 221.742 34.136 222.286 33.24C222.862 32.312 223.326 31.544 223.678 30.936C223.806 30.776 223.998 30.696 224.254 30.696C224.542 30.664 224.814 30.696 225.07 30.792C225.326 30.888 225.534 31.016 225.694 31.176C225.854 31.336 225.87 31.528 225.742 31.752C225.518 32.104 225.294 32.472 225.07 32.856C224.878 33.208 224.67 33.56 224.446 33.912C224.158 34.424 223.87 34.92 223.582 35.4C223.294 35.88 222.99 36.344 222.67 36.792ZM224.813 21.048C224.525 21.144 224.269 21.16 224.045 21.096C223.821 21.032 223.645 20.936 223.517 20.808C223.389 20.648 223.341 20.488 223.373 20.328C223.405 20.136 223.533 19.96 223.757 19.8C226.029 18.328 228.349 17.112 230.717 16.152C232.477 12.376 233.725 9.128 234.461 6.408C234.845 6.216 235.373 6.2 236.045 6.36C236.717 6.52 237.357 6.792 237.965 7.176C238.573 7.56 239.069 8.024 239.453 8.568C239.837 9.112 239.933 9.656 239.741 10.2C239.613 10.52 239.405 11.016 239.117 11.688C238.829 12.328 238.477 13.064 238.061 13.896C240.461 13.416 242.877 13.176 245.309 13.176C245.629 13.176 246.013 13.192 246.461 13.224C246.941 13.224 247.341 13.24 247.661 13.272C247.757 13.528 247.757 13.816 247.661 14.136C247.565 14.456 247.405 14.76 247.181 15.048C246.989 15.304 246.749 15.528 246.461 15.72C246.173 15.88 245.885 15.928 245.597 15.864C245.213 15.832 244.845 15.816 244.493 15.816C244.141 15.784 243.789 15.768 243.437 15.768C242.317 15.768 241.197 15.832 240.077 15.96C238.989 16.088 237.885 16.28 236.765 16.536L234.509 20.952L234.221 21.528C233.933 22.072 233.533 22.84 233.021 23.832C232.541 24.792 232.013 25.88 231.437 27.096C230.861 28.28 230.269 29.528 229.661 30.84C229.085 32.152 228.557 33.432 228.077 34.68C227.597 35.896 227.197 37.032 226.877 38.088C226.589 39.144 226.445 40.008 226.445 40.68C226.445 41.384 226.525 41.816 226.685 41.976H227.069C227.933 41.656 228.765 41.16 229.565 40.488C230.365 39.784 231.117 39 231.821 38.136C232.557 37.24 233.245 36.296 233.885 35.304C234.557 34.312 235.165 33.352 235.709 32.424H235.661C235.821 32.168 235.981 31.928 236.141 31.704C236.301 31.448 236.461 31.192 236.621 30.936C236.717 30.776 236.893 30.696 237.149 30.696C237.437 30.664 237.709 30.696 237.965 30.792C238.221 30.888 238.429 31.016 238.589 31.176C238.749 31.336 238.781 31.528 238.685 31.752L237.485 33.72C237.005 34.488 236.493 35.288 235.949 36.12C235.437 36.952 234.877 37.784 234.269 38.616C233.661 39.416 233.021 40.2 232.349 40.968C231.677 41.704 230.973 42.376 230.237 42.984C230.013 43.176 229.725 43.4 229.373 43.656C229.021 43.912 228.605 44.152 228.125 44.376C227.677 44.568 227.165 44.744 226.589 44.904C226.013 45.032 225.405 45.096 224.765 45.096C223.453 45.032 222.493 44.584 221.885 43.752C221.309 42.92 221.021 41.896 221.021 40.68C221.021 40.424 221.037 40.12 221.069 39.768C221.101 39.416 221.149 39.096 221.213 38.808C221.437 37.368 221.773 35.928 222.221 34.488C222.701 33.048 223.229 31.624 223.805 30.216C224.413 28.776 225.069 27.352 225.773 25.944C226.477 24.536 227.197 23.128 227.933 21.72L229.325 18.936C228.589 19.256 227.853 19.592 227.117 19.944C226.381 20.264 225.645 20.632 224.909 21.048H224.813ZM240.296 20.904C240.68 20.712 241.176 20.728 241.784 20.952C242.424 21.144 243.016 21.448 243.56 21.864C244.136 22.248 244.6 22.728 244.952 23.304C245.304 23.848 245.384 24.392 245.192 24.936L243.896 27.816C243.448 28.776 242.952 29.864 242.408 31.08C241.896 32.264 241.4 33.464 240.92 34.68C240.472 35.864 240.088 37 239.768 38.088C239.448 39.144 239.288 40.008 239.288 40.68C239.288 41.544 239.384 41.976 239.576 41.976H239.96C240.824 41.656 241.656 41.16 242.456 40.488C243.256 39.784 244.008 39 244.712 38.136C245.448 37.24 246.136 36.296 246.776 35.304C247.448 34.312 248.056 33.352 248.6 32.424H248.552L249.176 31.464C249.752 29.896 250.328 28.248 250.904 26.52C251.512 24.76 252.088 22.952 252.632 21.096C253.016 20.904 253.544 20.904 254.216 21.096C254.888 21.256 255.528 21.528 256.136 21.912C256.744 22.296 257.24 22.76 257.624 23.304C258.008 23.848 258.104 24.392 257.912 24.936L250.808 42.12C250.072 43.944 249.336 45.64 248.6 47.208C247.864 48.808 247.112 50.312 246.344 51.72C247.56 52.392 248.728 53.096 249.848 53.832C250.968 54.568 252.088 55.32 253.208 56.088H253.16C253.288 56.152 253.4 56.232 253.496 56.328C253.624 56.456 253.752 56.552 253.88 56.616C254.264 56.904 254.28 57.192 253.928 57.48C253.608 57.8 253.128 58.072 252.488 58.296C251.88 58.52 251.24 58.68 250.568 58.776C249.928 58.872 249.496 58.856 249.272 58.728L247.304 57.336L244.232 55.176C243.304 56.52 242.296 57.72 241.208 58.776C240.152 59.832 238.984 60.712 237.704 61.416C236.456 62.152 235.08 62.696 233.576 63.048C232.04 63.432 230.36 63.624 228.536 63.624C227.448 63.624 226.376 63.512 225.32 63.288C224.264 63.096 223.32 62.776 222.488 62.328C221.624 61.88 220.936 61.288 220.424 60.552C219.88 59.848 219.608 58.968 219.608 57.912C219.608 56.504 219.976 55.192 220.712 53.976C221.416 52.792 222.376 51.752 223.592 50.856C224.776 49.992 226.168 49.304 227.768 48.792C229.336 48.312 230.984 48.072 232.712 48.072C233.704 48.072 234.6 48.104 235.4 48.168C236.2 48.232 236.936 48.328 237.608 48.456C238.28 48.584 238.92 48.744 239.528 48.936C240.136 49.128 240.76 49.336 241.4 49.56C242.936 46.68 244.344 43.688 245.624 40.584L245.672 40.44C245.256 40.888 244.84 41.336 244.424 41.784C244.008 42.232 243.576 42.632 243.128 42.984C242.904 43.176 242.616 43.4 242.264 43.656C241.912 43.912 241.496 44.152 241.016 44.376C240.568 44.568 240.056 44.744 239.48 44.904C238.904 45.032 238.296 45.096 237.656 45.096C236.408 45.032 235.464 44.6 234.824 43.8C234.216 42.968 233.912 41.944 233.912 40.728C233.912 40.056 233.976 39.416 234.104 38.808C234.232 38.232 234.408 37.56 234.632 36.792C234.856 35.992 235.112 35.144 235.4 34.248C235.72 33.352 236.04 32.424 236.36 31.464C236.712 30.504 237.064 29.56 237.416 28.632C237.896 27.288 238.36 25.976 238.808 24.696C239.256 23.384 239.64 22.12 239.96 20.904H240.296ZM227.768 62.04C228.888 62.04 229.976 61.8 231.032 61.32C232.088 60.84 233.112 60.184 234.104 59.352C235.096 58.52 236.04 57.512 236.936 56.328C237.864 55.176 238.76 53.928 239.624 52.584C238.6 52.168 237.528 51.848 236.408 51.624C235.32 51.4 234.104 51.272 232.76 51.24C231.64 51.24 230.456 51.368 229.208 51.624C227.96 51.88 226.824 52.264 225.8 52.776C224.776 53.32 223.928 54.008 223.256 54.84C222.584 55.672 222.28 56.648 222.344 57.768C222.344 58.632 222.52 59.336 222.872 59.88C223.224 60.424 223.672 60.856 224.216 61.176C224.728 61.496 225.304 61.72 225.944 61.848C226.584 61.976 227.192 62.04 227.768 62.04Z" fill="white"/>
<path d="M67.494 52.78C68.0913 52.78 68.6327 52.8547 69.118 53.004C69.6033 53.1533 70.0175 53.3668 70.3605 53.6445C70.7058 53.9222 70.9718 54.2605 71.1585 54.6595C71.3452 55.0585 71.4385 55.5077 71.4385 56.007H70.0035C70.0035 55.7177 69.9417 55.4563 69.818 55.223C69.6967 54.9873 69.5252 54.7878 69.3035 54.6245C69.0818 54.4588 68.8158 54.3317 68.5055 54.243C68.1975 54.1543 67.8568 54.11 67.4835 54.11C67.2735 54.11 67.0647 54.1252 66.857 54.1555C66.6517 54.1835 66.4533 54.2278 66.262 54.2885C66.073 54.3468 65.8968 54.4215 65.7335 54.5125C65.5702 54.6035 65.429 54.7108 65.31 54.8345C65.191 54.9582 65.0965 55.0993 65.0265 55.258C64.9588 55.4143 64.925 55.5882 64.925 55.7795C64.925 55.9475 64.9518 56.0945 65.0055 56.2205C65.0615 56.3442 65.1408 56.4515 65.2435 56.5425C65.3462 56.6335 65.4722 56.7117 65.6215 56.777C65.7732 56.8423 65.9447 56.8995 66.136 56.9485C66.3297 56.9952 66.5408 57.0383 66.7695 57.078C67.0005 57.1177 67.249 57.1573 67.515 57.197L68.033 57.274C68.3153 57.316 68.6047 57.3638 68.901 57.4175C69.1973 57.4688 69.4843 57.5377 69.762 57.624C70.042 57.708 70.3057 57.8153 70.553 57.946C70.8003 58.0743 71.0162 58.2365 71.2005 58.4325C71.3872 58.6285 71.5342 58.8653 71.6415 59.143C71.7488 59.4183 71.8025 59.745 71.8025 60.123C71.8025 60.6433 71.6987 61.0972 71.491 61.4845C71.2857 61.8695 70.9975 62.1903 70.6265 62.447C70.2578 62.7013 69.8168 62.8915 69.3035 63.0175C68.7925 63.1458 68.2302 63.21 67.6165 63.21C66.9445 63.21 66.3425 63.1365 65.8105 62.9895C65.2785 62.8402 64.827 62.6243 64.456 62.342C64.0873 62.0573 63.805 61.7097 63.609 61.299C63.413 60.886 63.315 60.417 63.315 59.892H64.75C64.75 60.2023 64.8165 60.4812 64.9495 60.7285C65.0825 60.9735 65.2715 61.1823 65.5165 61.355C65.7638 61.5253 66.0625 61.656 66.4125 61.747C66.7648 61.8357 67.1592 61.88 67.5955 61.88C67.9712 61.88 68.3258 61.845 68.6595 61.775C68.9955 61.705 69.2895 61.5977 69.5415 61.453C69.7935 61.306 69.993 61.1205 70.14 60.8965C70.2893 60.6725 70.364 60.4053 70.364 60.095C70.364 59.9107 70.336 59.7508 70.28 59.6155C70.2263 59.4802 70.1482 59.3635 70.0455 59.2655C69.9428 59.1652 69.8192 59.0812 69.6745 59.0135C69.5298 58.9458 69.3665 58.8887 69.1845 58.842C69.0025 58.793 68.8042 58.751 68.5895 58.716C68.3772 58.6787 68.1532 58.6413 67.9175 58.604L67.2665 58.506C66.9795 58.464 66.6867 58.4173 66.388 58.366C66.0917 58.3147 65.8035 58.2493 65.5235 58.17C65.2435 58.0883 64.9798 57.9868 64.7325 57.8655C64.4875 57.7418 64.2728 57.5878 64.0885 57.4035C63.9042 57.2168 63.7583 56.994 63.651 56.735C63.5437 56.476 63.49 56.168 63.49 55.811C63.49 55.4773 63.5378 55.1705 63.6335 54.8905C63.7315 54.6105 63.868 54.3585 64.043 54.1345C64.218 53.9105 64.428 53.7145 64.673 53.5465C64.918 53.3762 65.1887 53.235 65.485 53.123C65.7813 53.0087 66.0987 52.9235 66.437 52.8675C66.7777 52.8092 67.13 52.78 67.494 52.78ZM72.5271 57.995C72.5271 57.477 72.5784 56.9893 72.6811 56.532C72.7838 56.0723 72.9319 55.65 73.1256 55.265C73.3216 54.8777 73.5584 54.5312 73.8361 54.2255C74.1138 53.9175 74.4276 53.6573 74.7776 53.445C75.1276 53.2303 75.5103 53.0658 75.9256 52.9515C76.3409 52.8372 76.7831 52.78 77.2521 52.78C77.7211 52.78 78.1633 52.8372 78.5786 52.9515C78.9939 53.0658 79.3766 53.2303 79.7266 53.445C80.0766 53.6573 80.3904 53.9175 80.6681 54.2255C80.9481 54.5312 81.1849 54.8777 81.3786 55.265C81.5723 55.65 81.7204 56.0723 81.8231 56.532C81.9281 56.9893 81.9806 57.477 81.9806 57.995C81.9806 58.513 81.9281 59.0018 81.8231 59.4615C81.7204 59.9188 81.5723 60.3412 81.3786 60.7285C81.1849 61.1135 80.9481 61.46 80.6681 61.768C80.3904 62.0737 80.0766 62.3338 79.7266 62.5485C79.3766 62.7608 78.9939 62.9242 78.5786 63.0385C78.1633 63.1528 77.7211 63.21 77.2521 63.21C76.7831 63.21 76.3409 63.1528 75.9256 63.0385C75.5103 62.9242 75.1276 62.7608 74.7776 62.5485C74.4276 62.3338 74.1138 62.0737 73.8361 61.768C73.5584 61.46 73.3216 61.1135 73.1256 60.7285C72.9319 60.3412 72.7838 59.9188 72.6811 59.4615C72.5784 59.0018 72.5271 58.513 72.5271 57.995ZM73.9971 57.995C73.9971 58.3963 74.0298 58.7697 74.0951 59.115C74.1628 59.4603 74.2608 59.7765 74.3891 60.0635C74.5174 60.3482 74.6749 60.6013 74.8616 60.823C75.0483 61.0447 75.2618 61.2313 75.5021 61.383C75.7448 61.5347 76.0119 61.6502 76.3036 61.7295C76.5976 61.8065 76.9138 61.845 77.2521 61.845C77.5904 61.845 77.9054 61.8065 78.1971 61.7295C78.4911 61.6502 78.7583 61.5347 78.9986 61.383C79.2413 61.2313 79.4559 61.0447 79.6426 60.823C79.8316 60.6013 79.9903 60.3482 80.1186 60.0635C80.2469 59.7765 80.3438 59.4603 80.4091 59.115C80.4768 58.7697 80.5106 58.3963 80.5106 57.995C80.5106 57.5937 80.4768 57.2203 80.4091 56.875C80.3438 56.5297 80.2469 56.2147 80.1186 55.93C79.9903 55.643 79.8316 55.3887 79.6426 55.167C79.4559 54.9453 79.2413 54.7587 78.9986 54.607C78.7583 54.4553 78.4911 54.341 78.1971 54.264C77.9054 54.1847 77.5904 54.145 77.2521 54.145C76.9138 54.145 76.5976 54.1847 76.3036 54.264C76.0119 54.341 75.7448 54.4553 75.5021 54.607C75.2618 54.7587 75.0483 54.9453 74.8616 55.167C74.6749 55.3887 74.5174 55.643 74.3891 55.93C74.2608 56.2147 74.1628 56.5297 74.0951 56.875C74.0298 57.2203 73.9971 57.5937 73.9971 57.995ZM83.0638 52.99H84.5338V61.81L84.3658 61.635H89.6858V63H83.0638V52.99ZM89.9588 57.995C89.9588 57.477 90.0101 56.9893 90.1128 56.532C90.2154 56.0723 90.3636 55.65 90.5573 55.265C90.7533 54.8777 90.9901 54.5312 91.2677 54.2255C91.5454 53.9175 91.8593 53.6573 92.2093 53.445C92.5593 53.2303 92.9419 53.0658 93.3573 52.9515C93.7726 52.8372 94.2148 52.78 94.6838 52.78C95.1528 52.78 95.5949 52.8372 96.0103 52.9515C96.4256 53.0658 96.8083 53.2303 97.1583 53.445C97.5083 53.6573 97.8221 53.9175 98.0998 54.2255C98.3798 54.5312 98.6166 54.8777 98.8103 55.265C99.0039 55.65 99.1521 56.0723 99.2548 56.532C99.3598 56.9893 99.4123 57.477 99.4123 57.995C99.4123 58.513 99.3598 59.0018 99.2548 59.4615C99.1521 59.9188 99.0039 60.3412 98.8103 60.7285C98.6166 61.1135 98.3798 61.46 98.0998 61.768C97.8221 62.0737 97.5083 62.3338 97.1583 62.5485C96.8083 62.7608 96.4256 62.9242 96.0103 63.0385C95.5949 63.1528 95.1528 63.21 94.6838 63.21C94.2148 63.21 93.7726 63.1528 93.3573 63.0385C92.9419 62.9242 92.5593 62.7608 92.2093 62.5485C91.8593 62.3338 91.5454 62.0737 91.2677 61.768C90.9901 61.46 90.7533 61.1135 90.5573 60.7285C90.3636 60.3412 90.2154 59.9188 90.1128 59.4615C90.0101 59.0018 89.9588 58.513 89.9588 57.995ZM91.4288 57.995C91.4288 58.3963 91.4614 58.7697 91.5267 59.115C91.5944 59.4603 91.6924 59.7765 91.8208 60.0635C91.9491 60.3482 92.1066 60.6013 92.2933 60.823C92.4799 61.0447 92.6934 61.2313 92.9338 61.383C93.1764 61.5347 93.4436 61.6502 93.7353 61.7295C94.0293 61.8065 94.3454 61.845 94.6838 61.845C95.0221 61.845 95.3371 61.8065 95.6288 61.7295C95.9228 61.6502 96.1899 61.5347 96.4303 61.383C96.6729 61.2313 96.8876 61.0447 97.0743 60.823C97.2633 60.6013 97.4219 60.3482 97.5503 60.0635C97.6786 59.7765 97.7754 59.4603 97.8408 59.115C97.9084 58.7697 97.9423 58.3963 97.9423 57.995C97.9423 57.5937 97.9084 57.2203 97.8408 56.875C97.7754 56.5297 97.6786 56.2147 97.5503 55.93C97.4219 55.643 97.2633 55.3887 97.0743 55.167C96.8876 54.9453 96.6729 54.7587 96.4303 54.607C96.1899 54.4553 95.9228 54.341 95.6288 54.264C95.3371 54.1847 95.0221 54.145 94.6838 54.145C94.3454 54.145 94.0293 54.1847 93.7353 54.264C93.4436 54.341 93.1764 54.4553 92.9338 54.607C92.6934 54.7587 92.4799 54.9453 92.2933 55.167C92.1066 55.3887 91.9491 55.643 91.8208 55.93C91.6924 56.2147 91.5944 56.5297 91.5267 56.875C91.4614 57.2203 91.4288 57.5937 91.4288 57.995ZM103.64 58.8V52.99H105.11V58.8C105.11 59.122 105.138 59.4218 105.194 59.6995C105.25 59.9748 105.332 60.2257 105.439 60.452C105.549 60.676 105.683 60.8755 105.841 61.0505C106.002 61.2232 106.186 61.369 106.391 61.488C106.599 61.6047 106.83 61.6933 107.084 61.754C107.338 61.8147 107.614 61.845 107.91 61.845C108.206 61.845 108.482 61.8147 108.736 61.754C108.99 61.6933 109.22 61.6047 109.425 61.488C109.633 61.369 109.816 61.2232 109.975 61.0505C110.136 60.8755 110.27 60.676 110.377 60.452C110.487 60.2257 110.57 59.9748 110.626 59.6995C110.682 59.4218 110.71 59.122 110.71 58.8V52.99H112.18V58.8C112.18 59.248 112.134 59.668 112.043 60.06C111.952 60.452 111.821 60.8113 111.648 61.138C111.478 61.4647 111.268 61.7563 111.018 62.013C110.771 62.2697 110.488 62.4867 110.171 62.664C109.856 62.8413 109.508 62.9767 109.128 63.07C108.75 63.1633 108.344 63.21 107.91 63.21C107.476 63.21 107.069 63.1633 106.688 63.07C106.31 62.9767 105.963 62.8413 105.645 62.664C105.33 62.4867 105.048 62.2697 104.798 62.013C104.551 61.7563 104.341 61.4647 104.168 61.138C103.998 60.8113 103.867 60.452 103.776 60.06C103.685 59.668 103.64 59.248 103.64 58.8ZM122.192 52.99V63H119.805L114.72 53.893L114.741 53.8895V63H113.306V52.99H115.903L120.778 61.719L120.757 61.726V52.99H122.192ZM124.436 63H122.91L126.641 52.99H128.846L132.528 63H130.967L127.488 53.452H127.964L124.436 63ZM124.702 60.4905V59.1605H130.848V60.4905H124.702ZM136.384 52.99H143.146V54.355H137.686L137.854 54.18V57.498L137.686 57.323H142.726V58.688H137.686L137.854 58.513V61.81L137.686 61.635H143.286V63H136.384V52.99ZM153.316 52.99H155.804V63H154.334V53.7145H154.53L150.985 63H148.92L145.42 53.7145H145.612V63H144.177V52.99H146.673L150.176 62.342H149.763L153.316 52.99ZM156.883 57.995C156.883 57.477 156.934 56.9893 157.037 56.532C157.139 56.0723 157.287 55.65 157.481 55.265C157.677 54.8777 157.914 54.5312 158.192 54.2255C158.469 53.9175 158.783 53.6573 159.133 53.445C159.483 53.2303 159.866 53.0658 160.281 52.9515C160.696 52.8372 161.139 52.78 161.608 52.78C162.077 52.78 162.519 52.8372 162.934 52.9515C163.349 53.0658 163.732 53.2303 164.082 53.445C164.432 53.6573 164.746 53.9175 165.024 54.2255C165.304 54.5312 165.54 54.8777 165.734 55.265C165.928 55.65 166.076 56.0723 166.179 56.532C166.284 56.9893 166.336 57.477 166.336 57.995C166.336 58.513 166.284 59.0018 166.179 59.4615C166.076 59.9188 165.928 60.3412 165.734 60.7285C165.54 61.1135 165.304 61.46 165.024 61.768C164.746 62.0737 164.432 62.3338 164.082 62.5485C163.732 62.7608 163.349 62.9242 162.934 63.0385C162.519 63.1528 162.077 63.21 161.608 63.21C161.139 63.21 160.696 63.1528 160.281 63.0385C159.866 62.9242 159.483 62.7608 159.133 62.5485C158.783 62.3338 158.469 62.0737 158.192 61.768C157.914 61.46 157.677 61.1135 157.481 60.7285C157.287 60.3412 157.139 59.9188 157.037 59.4615C156.934 59.0018 156.883 58.513 156.883 57.995ZM158.353 57.995C158.353 58.3963 158.385 58.7697 158.451 59.115C158.518 59.4603 158.616 59.7765 158.745 60.0635C158.873 60.3482 159.03 60.6013 159.217 60.823C159.404 61.0447 159.617 61.2313 159.858 61.383C160.1 61.5347 160.367 61.6502 160.659 61.7295C160.953 61.8065 161.269 61.845 161.608 61.845C161.946 61.845 162.261 61.8065 162.553 61.7295C162.847 61.6502 163.114 61.5347 163.354 61.383C163.597 61.2313 163.811 61.0447 163.998 60.823C164.187 60.6013 164.346 60.3482 164.474 60.0635C164.602 59.7765 164.699 59.4603 164.765 59.115C164.832 58.7697 164.866 58.3963 164.866 57.995C164.866 57.5937 164.832 57.2203 164.765 56.875C164.699 56.5297 164.602 56.2147 164.474 55.93C164.346 55.643 164.187 55.3887 163.998 55.167C163.811 54.9453 163.597 54.7587 163.354 54.607C163.114 54.4553 162.847 54.341 162.553 54.264C162.261 54.1847 161.946 54.145 161.608 54.145C161.269 54.145 160.953 54.1847 160.659 54.264C160.367 54.341 160.1 54.4553 159.858 54.607C159.617 54.7587 159.404 54.9453 159.217 55.167C159.03 55.3887 158.873 55.643 158.745 55.93C158.616 56.2147 158.518 56.5297 158.451 56.875C158.385 57.2203 158.353 57.5937 158.353 57.995ZM168.784 57.995C168.784 58.3963 168.817 58.7697 168.882 59.115C168.95 59.4603 169.048 59.7765 169.176 60.0635C169.305 60.3482 169.462 60.6013 169.649 60.823C169.835 61.0447 170.049 61.2313 170.289 61.383C170.532 61.5347 170.799 61.6502 171.091 61.7295C171.382 61.8065 171.697 61.845 172.036 61.845C172.446 61.845 172.819 61.7867 173.152 61.67C173.488 61.5533 173.783 61.3807 174.038 61.152C174.292 60.921 174.506 60.6352 174.678 60.2945C174.851 59.9538 174.979 59.5607 175.063 59.115H176.537C176.432 59.7543 176.25 60.3272 175.991 60.8335C175.734 61.3398 175.412 61.7692 175.025 62.1215C174.637 62.4738 174.192 62.7433 173.688 62.93C173.184 63.1167 172.632 63.21 172.032 63.21C171.566 63.21 171.125 63.1528 170.709 63.0385C170.294 62.9242 169.911 62.7608 169.561 62.5485C169.214 62.3338 168.9 62.0737 168.62 61.768C168.342 61.46 168.106 61.1135 167.913 60.7285C167.719 60.3412 167.571 59.9188 167.468 59.4615C167.366 59.0018 167.314 58.513 167.314 57.995C167.314 57.477 167.366 56.9893 167.468 56.532C167.571 56.0723 167.719 55.65 167.913 55.265C168.106 54.8777 168.342 54.5312 168.62 54.2255C168.9 53.9175 169.214 53.6573 169.561 53.445C169.911 53.2303 170.294 53.0658 170.709 52.9515C171.125 52.8372 171.566 52.78 172.032 52.78C172.632 52.78 173.184 52.8733 173.688 53.06C174.192 53.2467 174.637 53.5162 175.025 53.8685C175.412 54.2208 175.734 54.6502 175.991 55.1565C176.25 55.6628 176.432 56.2357 176.537 56.875H175.063C174.979 56.4293 174.851 56.0362 174.678 55.6955C174.506 55.3548 174.292 55.0702 174.038 54.8415C173.783 54.6105 173.488 54.4367 173.152 54.32C172.819 54.2033 172.446 54.145 172.036 54.145C171.697 54.145 171.382 54.1847 171.091 54.264C170.799 54.341 170.532 54.4553 170.289 54.607C170.049 54.7587 169.835 54.9453 169.649 55.167C169.462 55.3887 169.305 55.643 169.176 55.93C169.048 56.2147 168.95 56.5297 168.882 56.875C168.817 57.2203 168.784 57.5937 168.784 57.995ZM179.157 52.99V63H177.687V52.99H179.157ZM180.248 57.995C180.248 57.477 180.299 56.9893 180.402 56.532C180.504 56.0723 180.653 55.65 180.846 55.265C181.042 54.8777 181.279 54.5312 181.557 54.2255C181.834 53.9175 182.148 53.6573 182.498 53.445C182.848 53.2303 183.231 53.0658 183.646 52.9515C184.062 52.8372 184.504 52.78 184.973 52.78C185.442 52.78 185.884 52.8372 186.299 52.9515C186.715 53.0658 187.097 53.2303 187.447 53.445C187.797 53.6573 188.111 53.9175 188.389 54.2255C188.669 54.5312 188.906 54.8777 189.099 55.265C189.293 55.65 189.441 56.0723 189.544 56.532C189.649 56.9893 189.701 57.477 189.701 57.995C189.701 58.513 189.649 59.0018 189.544 59.4615C189.441 59.9188 189.293 60.3412 189.099 60.7285C188.906 61.1135 188.669 61.46 188.389 61.768C188.111 62.0737 187.797 62.3338 187.447 62.5485C187.097 62.7608 186.715 62.9242 186.299 63.0385C185.884 63.1528 185.442 63.21 184.973 63.21C184.504 63.21 184.062 63.1528 183.646 63.0385C183.231 62.9242 182.848 62.7608 182.498 62.5485C182.148 62.3338 181.834 62.0737 181.557 61.768C181.279 61.46 181.042 61.1135 180.846 60.7285C180.653 60.3412 180.504 59.9188 180.402 59.4615C180.299 59.0018 180.248 58.513 180.248 57.995ZM181.718 57.995C181.718 58.3963 181.75 58.7697 181.816 59.115C181.883 59.4603 181.981 59.7765 182.11 60.0635C182.238 60.3482 182.396 60.6013 182.582 60.823C182.769 61.0447 182.982 61.2313 183.223 61.383C183.465 61.5347 183.733 61.6502 184.024 61.7295C184.318 61.8065 184.634 61.845 184.973 61.845C185.311 61.845 185.626 61.8065 185.918 61.7295C186.212 61.6502 186.479 61.5347 186.719 61.383C186.962 61.2313 187.177 61.0447 187.363 60.823C187.552 60.6013 187.711 60.3482 187.839 60.0635C187.968 59.7765 188.064 59.4603 188.13 59.115C188.197 58.7697 188.231 58.3963 188.231 57.995C188.231 57.5937 188.197 57.2203 188.13 56.875C188.064 56.5297 187.968 56.2147 187.839 55.93C187.711 55.643 187.552 55.3887 187.363 55.167C187.177 54.9453 186.962 54.7587 186.719 54.607C186.479 54.4553 186.212 54.341 185.918 54.264C185.626 54.1847 185.311 54.145 184.973 54.145C184.634 54.145 184.318 54.1847 184.024 54.264C183.733 54.341 183.465 54.4553 183.223 54.607C182.982 54.7587 182.769 54.9453 182.582 55.167C182.396 55.3887 182.238 55.643 182.11 55.93C181.981 56.2147 181.883 56.5297 181.816 56.875C181.75 57.2203 181.718 57.5937 181.718 57.995ZM185.466 52.465L186.985 50.2285H185.585L184.486 52.465H185.466ZM199.671 52.99V63H197.284L192.198 53.893L192.219 53.8895V63H190.784V52.99H193.381L198.257 61.719L198.236 61.726V52.99H199.671Z" fill="white"/>
</g>
<defs>
<clipPath id="clip0_1_70">
<rect width="259" height="66" fill="white"/>
</clipPath>
</defs>
</svg>
